<svg width="10" height="12" viewBox="0 0 10 12" fill="none" xmlns="http://www.w3.org/2000/svg">
<path d="M8.62743 10.5698C8.748 10.5691 8.86416 10.6151 8.95142 10.6984C9.03867 10.7816 9.09019 10.8954 9.09512 11.0159C9.10005 11.1364 9.058 11.254 8.97784 11.3441C8.89767 11.4342 8.78567 11.4896 8.66543 11.4987L8.62743 11.5H0.785344C0.665371 11.4999 0.550086 11.4534 0.463577 11.3703C0.377069 11.2871 0.326029 11.1738 0.321123 11.0539C0.316217 10.9341 0.357824 10.8169 0.43725 10.727C0.516677 10.6371 0.627778 10.5814 0.74734 10.5714L0.785344 10.5698H8.62743ZM5.87946 0.822771L0.76674 5.93549C0.612794 6.08941 0.50784 6.28544 0.465101 6.4989L0.0172934 8.73794C-0.0114553 8.88167 -0.00427464 9.03027 0.0381979 9.17055C0.0806704 9.31083 0.157121 9.43846 0.260763 9.5421C0.364405 9.64574 0.492033 9.7222 0.632316 9.76467C0.7726 9.80714 0.9212 9.81432 1.06492 9.78557L3.30396 9.33777C3.51742 9.29503 3.71346 9.19007 3.86738 9.03613L8.98036 3.92341C9.08278 3.82099 9.16401 3.69941 9.21944 3.5656C9.27487 3.43179 9.3034 3.28837 9.3034 3.14353C9.3034 2.9987 9.27487 2.85528 9.21944 2.72147C9.16401 2.58765 9.08278 2.46607 8.98036 2.36366L7.43894 0.823037C7.33653 0.720621 7.21495 0.639381 7.08113 0.583954C6.94732 0.528528 6.8039 0.5 6.65907 0.5C6.51423 0.5 6.37081 0.528528 6.237 0.583954C6.10319 0.639381 5.98187 0.720356 5.87946 0.822771ZM1.42477 6.59325L6.53722 1.48053C6.55326 1.46446 6.57232 1.45171 6.59329 1.44301C6.61427 1.43431 6.63676 1.42983 6.65947 1.42983C6.68218 1.42983 6.70466 1.43431 6.72564 1.44301C6.74662 1.45171 6.76567 1.46446 6.78172 1.48053L8.3226 3.02141C8.33867 3.03746 8.35142 3.05652 8.36012 3.07749C8.36882 3.09847 8.3733 3.12096 8.3733 3.14366C8.3733 3.16637 8.36882 3.18886 8.36012 3.20984C8.35142 3.23081 8.33867 3.24987 8.3226 3.26592L3.20988 8.3781L3.19048 8.39484C3.16999 8.41001 3.14639 8.42044 3.12139 8.42541L0.94108 8.86152L1.37719 6.68121C1.38391 6.64778 1.40063 6.61734 1.42477 6.59325Z" fill="white"/>
</svg>
