<svg width="17" height="16" viewBox="0 0 17 16" fill="none" xmlns="http://www.w3.org/2000/svg">
<path d="M8.00321 16C9.09558 16 10.1253 15.7912 11.0891 15.3719C12.053 14.9526 12.9044 14.3759 13.6418 13.6386C14.3791 12.9012 14.9574 12.0498 15.3751 11.0859C15.7928 10.1205 16.0032 9.09238 16.0032 8.00001C16.0032 6.90764 15.7944 5.87791 15.3751 4.91405C14.9574 3.94859 14.3791 3.09879 13.6418 2.36144C12.9044 1.62409 12.0514 1.04579 11.0843 0.628118C10.1173 0.210447 9.08753 0 7.99356 0C6.90119 0 5.87148 0.208841 4.90762 0.628118C3.94216 1.04579 3.09236 1.62409 2.35822 2.36144C1.62409 3.09879 1.04738 3.9502 0.628098 4.91405C0.208821 5.87791 0 6.90764 0 8.00001C0 9.09238 0.208821 10.1221 0.628098 11.0859C1.04738 12.0498 1.62409 12.9012 2.36144 13.6386C3.09879 14.3759 3.9502 14.9542 4.91405 15.3719C5.87791 15.7896 6.91084 16 8.00321 16ZM5.24336 11.4185C5.06504 11.4185 4.91405 11.3542 4.78875 11.2257C4.66344 11.0972 4.60079 10.9414 4.60079 10.7582C4.60079 10.5799 4.66344 10.4289 4.78875 10.3036L7.08755 8.00481L4.78875 5.70603C4.66344 5.58073 4.60079 5.4281 4.60079 5.2514C4.60079 5.06826 4.66344 4.91566 4.78875 4.79196C4.91405 4.66827 5.06665 4.60722 5.24336 4.60722C5.43131 4.60722 5.58393 4.66988 5.69799 4.79518L8.00481 7.09398L10.3341 4.78716C10.4594 4.65704 10.6088 4.59116 10.7807 4.59116C10.959 4.59116 11.11 4.65382 11.2353 4.77912C11.3606 4.90442 11.4233 5.05702 11.4233 5.23373C11.4233 5.40562 11.3606 5.55983 11.2353 5.69638L8.92851 8.00321L11.2273 10.294C11.3526 10.4305 11.4153 10.5847 11.4153 10.7566C11.4153 10.9398 11.3526 11.0956 11.2273 11.2241C11.102 11.3526 10.9478 11.4169 10.7646 11.4169C10.5928 11.4169 10.4386 11.351 10.302 11.2209L8.00321 8.9221L5.72048 11.2209C5.59036 11.3542 5.43131 11.4185 5.24336 11.4185Z" fill="#808080"/>
</svg>
