<svg width="15" height="16" viewBox="0 0 15 16" fill="none" xmlns="http://www.w3.org/2000/svg">
<path d="M0 12.2585C0 12.5424 0.105841 12.7692 0.317498 12.9405C0.529155 13.1102 0.823835 13.1959 1.19993 13.1959H4.55554C4.5767 13.6971 4.71508 14.1586 4.97233 14.5821C5.22957 15.0055 5.57474 15.3481 6.00945 15.6083C6.44416 15.8684 6.93911 16 7.49593 16C8.05764 16 8.55586 15.8715 8.99057 15.613C9.42528 15.3545 9.77045 15.0135 10.0277 14.5868C10.2849 14.1602 10.4233 13.6971 10.4445 13.1975H13.8001C14.1762 13.1975 14.4709 13.1118 14.6825 12.9421C14.8942 12.7724 15 12.544 15 12.2601C15 12.0016 14.9235 11.751 14.7688 11.5083C14.6158 11.2657 14.4236 11.0277 14.1925 10.7962C13.9613 10.5646 13.7333 10.3315 13.5054 10.0999C13.3312 9.92388 13.1944 9.69389 13.0967 9.40999C12.999 9.12608 12.9258 8.82474 12.8786 8.50436C12.8313 8.18398 12.7971 7.8747 12.776 7.57494C12.7597 6.55829 12.6506 5.66375 12.4455 4.89135C12.242 4.11895 11.9245 3.47502 11.4946 2.95956C11.0648 2.44251 10.4982 2.06186 9.79323 1.81286C9.66135 1.30691 9.39109 0.878659 8.98568 0.526558C8.58028 0.176042 8.08369 0 7.49431 0C6.91143 0 6.41648 0.176042 6.01108 0.526558C5.60567 0.877073 5.33704 1.30691 5.20353 1.81286C4.49855 2.06028 3.93031 2.44251 3.49886 2.95956C3.0674 3.47661 2.74992 4.12053 2.54966 4.89135C2.34777 5.66375 2.24032 6.55829 2.22404 7.57494C2.20287 7.8747 2.16868 8.18398 2.12146 8.50436C2.07425 8.82474 2.00099 9.12608 1.9033 9.40999C1.80561 9.69389 1.66885 9.92388 1.49464 10.0999C1.2667 10.3315 1.03713 10.5646 0.807568 10.7962C0.576373 11.0277 0.384247 11.2657 0.231202 11.5083C0.0765295 11.751 0 12.0016 0 12.2585ZM1.54186 12.027V11.9334C1.58907 11.8604 1.66885 11.7637 1.77956 11.6431C1.89027 11.5226 2.01726 11.3894 2.15728 11.245C2.2973 11.1007 2.43733 10.9532 2.57409 10.8041C2.71737 10.6487 2.84111 10.4695 2.94694 10.2665C3.05277 10.0619 3.1423 9.83188 3.21719 9.57335C3.29209 9.31483 3.34908 9.02933 3.39142 8.71371C3.43375 8.39809 3.4663 8.05234 3.48747 7.67645C3.50864 6.55036 3.62748 5.65742 3.84565 4.99762C4.06219 4.33624 4.35365 3.84456 4.71672 3.52259C5.07979 3.20063 5.48844 2.977 5.94432 2.85329C6.04526 2.83267 6.12179 2.79461 6.17552 2.74069C6.22925 2.68676 6.25693 2.61062 6.26345 2.51229C6.27973 2.10943 6.39694 1.78112 6.61674 1.52418C6.83654 1.26883 7.1296 1.14036 7.49593 1.14036C7.86715 1.14036 8.16185 1.26883 8.38165 1.52418C8.60145 1.77954 8.72029 2.10943 8.73494 2.51229C8.73494 2.61062 8.76262 2.68676 8.81798 2.74069C8.87334 2.79461 8.94986 2.83267 9.04429 2.85329C9.50017 2.977 9.90884 3.20063 10.2719 3.52259C10.635 3.84456 10.9264 4.33783 11.1462 4.99762C11.366 5.659 11.4865 6.55195 11.5077 7.67645C11.5239 8.05393 11.5532 8.39967 11.5988 8.71371C11.6444 9.02933 11.7014 9.31483 11.773 9.57335C11.8447 9.83188 11.9326 10.0619 12.0401 10.2665C12.1459 10.4711 12.2712 10.6503 12.4129 10.8041C12.5562 10.9532 12.6978 11.1007 12.8379 11.245C12.9779 11.3894 13.1032 11.5226 13.2107 11.6431C13.3198 11.7653 13.3979 11.862 13.4451 11.9334V12.027H1.54186Z" fill="#DADADA"/>
</svg>
