<svg width="25" height="21" viewBox="0 0 25 21" fill="none" xmlns="http://www.w3.org/2000/svg">
<path d="M0 0V21H12.9217V14.6588C13.5995 14.6017 14.2807 14.5716 14.9626 14.5687C18.3197 14.6242 21.5603 15.5206 24.1867 17.1201C24.2411 17.1498 24.3026 17.1709 24.3677 17.1823C24.4328 17.1937 24.5002 17.1951 24.566 17.1866C24.6318 17.178 24.6948 17.1596 24.7513 17.1324C24.8078 17.1052 24.8567 17.0697 24.8952 17.028C24.9739 16.9435 25.006 16.8388 24.9847 16.7363C24.9634 16.6339 24.8904 16.542 24.7813 16.4803C21.98 14.7888 18.534 13.8412 14.9652 13.781C9.63071 13.781 4.90806 15.4323 1.01975 15.3898V14.7003C4.40348 14.7378 8.4229 13.4985 12.9204 13.1745V9.67128C13.5995 9.61406 14.282 9.58399 14.9652 9.58117C18.3224 9.63668 21.5629 10.533 24.1893 12.1326C24.2618 12.1737 24.3473 12.1991 24.4369 12.2064C24.5265 12.2137 24.6171 12.2026 24.6992 12.1741C24.7813 12.1452 24.8521 12.1003 24.9044 12.0439C24.9568 11.9875 24.9889 11.9216 24.9976 11.8528C25.0063 11.784 24.9913 11.7147 24.954 11.6517C24.9168 11.5887 24.8586 11.5342 24.7853 11.4938C21.9831 9.80128 18.5356 8.8533 14.9652 8.79345C9.63468 8.79345 4.91203 10.4448 1.02373 10.4013V9.71279C4.40745 9.75025 8.42687 8.51097 12.9244 8.18697V4.68377C13.6021 4.62666 14.2834 4.59658 14.9652 4.59366C18.3224 4.64917 21.5629 5.54553 24.1893 7.14512C24.2617 7.18545 24.3469 7.21035 24.436 7.21729C24.5251 7.22423 24.615 7.21295 24.6966 7.18461C24.7782 7.15558 24.8485 7.11079 24.9005 7.05465C24.9526 6.99852 24.9846 6.93298 24.9934 6.86449C25.0023 6.79601 24.9876 6.72695 24.9509 6.66413C24.9141 6.60131 24.8566 6.54689 24.784 6.50624C21.9821 4.81398 18.5351 3.866 14.9652 3.80594C9.63071 3.80594 4.90806 5.45731 1.01975 5.41377V4.72528C4.40348 4.75869 8.4229 3.52346 12.9217 3.19946V0H0Z" fill="#6D7278"/>
</svg>
