<svg width="28" height="22" viewBox="0 0 28 22" fill="none" xmlns="http://www.w3.org/2000/svg">
<path d="M0.364953 21.1951C0.259812 21.0128 0.330816 21.0391 0.259813 20.9348C-1.3487 9.08404 4.87644 4.55051 8.89772 3.6118C9.59683 3.45586 9.94639 3.58548 10.2959 4.07863C10.5325 4.38128 10.7204 4.70347 10.8558 5.0386C11.2132 5.99582 11.436 6.9779 11.5208 7.96914C11.5354 8.04756 11.5273 8.12737 11.4972 8.20331C11.4671 8.27925 11.4155 8.34957 11.346 8.40963C10.7328 8.97759 9.98903 9.46063 9.14896 9.83643C8.69426 10.0693 9.01242 10.5625 9.35924 10.4329C9.47565 10.3959 9.58797 10.3522 9.69515 10.3022C11.0282 9.73191 12.1204 8.89733 12.8494 7.89218C12.9429 7.77455 12.9902 7.63986 12.9859 7.50333V1.45997C12.9699 1.27831 13.0127 1.09645 13.1105 0.929486C13.2083 0.762525 13.3585 0.615287 13.5485 0.5C13.7588 0.5 13.898 0.526328 14.1083 0.526328C14.4584 0.826814 14.6341 1.21774 14.5971 1.61389C14.5971 3.24726 14.5616 5.11454 14.5616 6.48969C14.5566 7.29947 14.9268 8.08595 15.6103 8.71747C16.3748 9.31962 17.1806 9.89217 18.0245 10.4329C18.0673 10.4597 18.1171 10.4797 18.1708 10.4917C18.2244 10.5037 18.2809 10.5074 18.3365 10.5025C18.3922 10.4977 18.446 10.4844 18.4945 10.4636C18.5429 10.4427 18.5851 10.4147 18.6184 10.3812C18.6763 10.3222 18.7014 10.2489 18.6884 10.1765C18.6754 10.1041 18.6255 10.0382 18.5488 9.99237C17.7654 9.50422 17.0294 8.97566 16.3463 8.41065C16.265 8.31764 16.2179 8.21046 16.2098 8.09977C16.4371 6.61672 16.9189 5.16128 17.6435 3.76876C17.7406 3.60562 17.9165 3.47528 18.1365 3.40334C18.3565 3.3314 18.6049 3.32304 18.8328 3.37991C19.5319 3.48118 21.1063 4.26191 23.2733 6.51906C25.3061 8.57635 26.7307 10.9287 27.4537 13.4222C28.1768 15.9157 28.1821 18.4943 27.4693 20.9895C27.3328 21.508 27.1553 21.5596 26.4903 21.4563C23.0523 20.8563 19.9508 19.4787 17.6148 17.5142C16.7429 16.8278 16.0868 16.0067 15.6937 15.1099C15.3006 14.2131 15.1803 13.2629 15.3413 12.3275C15.3728 12.3066 15.4082 12.2892 15.4465 12.2758C15.6212 12.5087 15.9367 12.846 16.1811 13.1315C16.2219 13.1852 16.2799 13.2306 16.3498 13.2639C16.4198 13.2971 16.4997 13.3172 16.5825 13.3223C16.6653 13.3274 16.7486 13.3173 16.825 13.2931C16.9014 13.2688 16.9686 13.2311 17.0208 13.1832C17.1026 13.1166 17.1508 13.0312 17.1573 12.9413C17.1638 12.8514 17.1281 12.7626 17.0563 12.69C16.4624 12.0419 14.8184 10.3306 14.0141 9.4496C13.936 9.38685 13.8657 9.31908 13.8038 9.24708C13.6987 9.34834 13.629 9.42834 13.5307 9.53264C13.0064 10.1027 10.7998 11.8404 9.99828 12.4632C9.94518 12.5035 9.91004 12.5549 9.89758 12.6105C9.88513 12.6661 9.89597 12.7232 9.92864 12.7741C9.95518 12.8233 9.99863 12.8665 10.0547 12.8994C10.1107 12.9323 10.1774 12.9538 10.2481 12.9617C10.3187 12.9695 10.391 12.9636 10.4576 12.9443C10.5242 12.9251 10.5829 12.8933 10.6278 12.852C11.118 12.4885 11.8867 11.8921 12.2008 11.6592C12.1653 11.9964 12.1311 13.5831 12.0956 14.4084C12.0859 15.2808 11.7203 16.1305 11.047 16.8458C8.44302 19.9242 0.784149 21.9464 0.364953 21.1951Z" fill="#6D7278"/>
</svg>
