<svg width="52" height="10" viewBox="0 0 52 10" fill="none" xmlns="http://www.w3.org/2000/svg">
<path d="M1.06864 3.706V1.402H2.27464C3.21064 1.402 3.60664 1.834 3.60664 2.563C3.60664 3.265 3.21064 3.706 2.27464 3.706H1.06864ZM4.44364 2.563C4.44364 1.537 3.75064 0.727 2.27464 0.727H0.249641V7H1.06864V4.381H2.27464C3.83164 4.381 4.44364 3.517 4.44364 2.563ZM10.1416 4.525C10.1416 2.968 9.05255 1.987 7.64855 1.987C6.25355 1.987 5.15555 2.968 5.15555 4.525C5.15555 6.091 6.21755 7.081 7.61255 7.081C9.01655 7.081 10.1416 6.091 10.1416 4.525ZM5.99255 4.525C5.99255 3.283 6.77555 2.698 7.63955 2.698C8.48555 2.698 9.30455 3.283 9.30455 4.525C9.30455 5.776 8.46755 6.361 7.61255 6.361C6.75755 6.361 5.99255 5.776 5.99255 4.525ZM12.1814 7H13.0274L14.2154 3.085L15.4034 7H16.2494L17.7884 2.068H16.9784L15.8624 6.217L14.6654 2.068H13.8284L12.6044 6.208L11.4704 2.068H10.6334L12.1814 7ZM20.6982 2.68C21.5442 2.68 22.2642 3.211 22.2552 4.174H19.1412C19.2312 3.211 19.8972 2.68 20.6982 2.68ZM23.0022 5.479H22.1202C21.9402 6.01 21.4722 6.388 20.7342 6.388C19.8972 6.388 19.1952 5.839 19.1322 4.84H23.0742C23.0922 4.669 23.1012 4.525 23.1012 4.345C23.1012 2.995 22.1652 1.987 20.7342 1.987C19.2942 1.987 18.2952 2.968 18.2952 4.525C18.2952 6.091 19.3302 7.081 20.7342 7.081C21.9582 7.081 22.7502 6.379 23.0022 5.479ZM25.0013 4.318C25.0013 3.175 25.5953 2.824 26.3783 2.824H26.5943V1.978C25.8113 1.978 25.2803 2.32 25.0013 2.869V2.068H24.1823V7H25.0013V4.318ZM29.6367 2.68C30.4827 2.68 31.2027 3.211 31.1937 4.174H28.0797C28.1697 3.211 28.8357 2.68 29.6367 2.68ZM31.9407 5.479H31.0587C30.8787 6.01 30.4107 6.388 29.6727 6.388C28.8357 6.388 28.1337 5.839 28.0707 4.84H32.0127C32.0307 4.669 32.0397 4.525 32.0397 4.345C32.0397 2.995 31.1037 1.987 29.6727 1.987C28.2327 1.987 27.2337 2.968 27.2337 4.525C27.2337 6.091 28.2687 7.081 29.6727 7.081C30.8967 7.081 31.6887 6.379 31.9407 5.479ZM32.8147 4.516C32.8147 6.046 33.8317 7.081 35.1547 7.081C36.0547 7.081 36.6937 6.622 36.9907 6.073V7H37.8187V0.34H36.9907V2.95C36.6487 2.383 35.9377 1.987 35.1637 1.987C33.8317 1.987 32.8147 2.977 32.8147 4.516ZM36.9907 4.525C36.9907 5.686 36.2167 6.361 35.3167 6.361C34.4167 6.361 33.6517 5.677 33.6517 4.516C33.6517 3.355 34.4167 2.698 35.3167 2.698C36.2167 2.698 36.9907 3.382 36.9907 4.525ZM45.1662 5.236C45.1662 5.92 44.6802 6.325 43.8702 6.325H42.4212V4.111H43.8432C44.6442 4.111 45.1662 4.543 45.1662 5.236ZM45.0042 2.419C45.0042 3.058 44.5632 3.436 43.7982 3.436H42.4212V1.402H43.7802C44.5812 1.402 45.0042 1.798 45.0042 2.419ZM45.9852 5.317C45.9852 4.543 45.4272 3.886 44.7432 3.769C45.3462 3.571 45.8412 3.112 45.8412 2.32C45.8412 1.447 45.1752 0.727 43.8522 0.727H41.6022V7H43.9422C45.2382 7 45.9852 6.262 45.9852 5.317ZM48.9937 6.064L47.4457 2.068H46.5367L48.5257 6.946L47.5537 9.322H48.3997L51.3697 2.068H50.5237L48.9937 6.064Z" fill="#56E4D7"/>
</svg>
