<svg width="19" height="20" viewBox="0 0 19 20" fill="none" xmlns="http://www.w3.org/2000/svg">
<path d="M9.4984 16.3333C12.9576 16.3333 15.8317 13.4592 15.8317 10C15.8317 6.54084 12.9576 3.66667 9.48568 3.66667C6.02651 3.66667 3.15234 6.54084 3.15234 10C3.16506 13.4592 6.03923 16.3333 9.4984 16.3333ZM9.4984 15.2778C6.57336 15.2778 4.22062 12.925 4.22062 10C4.22062 7.07498 6.56065 4.72223 9.48568 4.72223C12.4107 4.72223 14.7635 7.07498 14.7762 10C14.7889 12.9378 12.4361 15.2778 9.4984 15.2778ZM9.37122 11.2845C9.67644 11.2845 9.87992 11.0937 9.87992 10.8394V10.7631C9.87992 10.4197 10.0834 10.2035 10.5158 9.91098C11.1135 9.51674 11.5459 9.14794 11.5459 8.41032C11.5459 7.36748 10.6303 6.82063 9.5747 6.82063C8.50643 6.82063 7.80697 7.32932 7.64164 7.88889C7.61621 7.99063 7.59077 8.09237 7.59077 8.19411C7.59077 8.46118 7.81969 8.62651 8.02317 8.62651C8.37926 8.62651 8.43012 8.43574 8.6336 8.20683C8.83708 7.86345 9.14231 7.65998 9.54927 7.65998C10.1088 7.65998 10.4776 7.97791 10.4776 8.44846C10.4776 8.86814 10.2106 9.07163 9.67645 9.45315C9.23133 9.75837 8.88795 10.089 8.88795 10.6995V10.7758C8.87523 11.1192 9.05328 11.2845 9.37122 11.2845ZM9.35851 13.1412C9.7146 13.1412 10.0325 12.8615 10.0325 12.4926C10.0325 12.1238 9.72732 11.8441 9.35851 11.8441C8.9897 11.8441 8.68447 12.1238 8.68447 12.4926C8.68447 12.8487 8.9897 13.1412 9.35851 13.1412Z" fill="#444444"/>
</svg>
