<svg width="60" height="14" viewBox="0 0 30 8" fill="none" xmlns="http://www.w3.org/2000/svg">
<path d="M3.95215 0.890625V8H3.02441V0.890625H3.95215ZM6.2373 0.890625V1.66211H0.744141V0.890625H6.2373ZM12.8086 7.2334V8H9.04395V7.2334H12.8086ZM9.23438 0.890625V8H8.29199V0.890625H9.23438ZM12.3105 3.94727V4.71387H9.04395V3.94727H12.3105ZM12.7598 0.890625V1.66211H9.04395V0.890625H12.7598ZM17.6074 1.52051L15.2539 8H14.292L17.002 0.890625H17.6221L17.6074 1.52051ZM19.5801 8L17.2217 1.52051L17.207 0.890625H17.8271L20.5469 8H19.5801ZM19.458 5.36816V6.13965H15.4639V5.36816H19.458ZM22.7969 0.890625H23.71L26.0391 6.68652L28.3633 0.890625H29.2812L26.3906 8H25.6777L22.7969 0.890625ZM22.499 0.890625H23.3047L23.4365 5.22656V8H22.499V0.890625ZM28.7686 0.890625H29.5742V8H28.6367V5.22656L28.7686 0.890625Z" fill="#77D0D1"/>
</svg>
