<svg width="14" height="16" viewBox="0 0 14 16" fill="none" xmlns="http://www.w3.org/2000/svg">
<path d="M6.37763 0.0289739C5.56928 -0.0572511 4.75402 0.0494853 3.984 0.342353C3.21399 0.635221 2.50618 1.10777 1.90588 1.72977C1.30557 2.35176 0.825977 3.1095 0.497795 3.9545C0.169612 4.7995 6.44337e-05 5.71315 0 6.63699V9.63125C0 9.72905 0.0341425 9.82284 0.0949168 9.892C0.155691 9.96115 0.238119 10 0.324066 10C0.410014 10 0.492442 9.96115 0.553216 9.892C0.61399 9.82284 0.648133 9.72905 0.648133 9.63125V6.79555C0.633084 5.32838 1.09106 3.9058 1.93544 2.79686C2.77981 1.68793 3.95205 0.969528 5.23043 0.777538C5.95721 0.680744 6.69377 0.760089 7.39167 1.01035C8.08958 1.26062 8.73303 1.67614 9.27972 2.2296C9.82641 2.78305 10.264 3.46191 10.5636 4.22153C10.8632 4.98116 11.0182 5.80435 11.0183 6.63699V9.63125C11.0183 9.72905 11.0524 9.82284 11.1132 9.892C11.174 9.96115 11.2564 10 11.3423 10C11.4283 10 11.5107 9.96115 11.5715 9.892C11.6323 9.82284 11.6664 9.72905 11.6664 9.63125V6.79187C11.6804 5.11853 11.1467 3.49913 10.169 2.24901C9.19139 0.99888 7.83987 0.207506 6.37763 0.0289739Z" fill="#444444"/>
<g clip-path="url(#clip0_3080_139211)">
<path d="M2.24999 5.00001C1.12282 5.00001 0.041822 5.44777 -0.755206 6.2448C-1.55223 7.04183 -2 8.12283 -2 9.25C-2 10.3772 -1.55223 11.4582 -0.755206 12.2552C0.041822 13.0522 1.12282 13.5 2.24999 13.5C2.42697 13.5004 2.60375 13.4877 2.77888 13.4622L3.19443 13.4103V5.08973L2.77888 5.03779C2.60375 5.01225 2.42697 4.99963 2.24999 5.00001ZM2.24999 12.5555C1.37331 12.5555 0.532526 12.2073 -0.0873851 11.5874C-0.707296 10.9675 -1.05556 10.1267 -1.05556 9.25C-1.05556 8.37331 -0.707296 7.53254 -0.0873851 6.91262C0.532526 6.29271 1.37331 5.94445 2.24999 5.94445V12.5555ZM6.9722 5.00001C6.79522 4.99963 6.61845 5.01225 6.44332 5.03779L6.02776 5.08973V13.4103L6.44332 13.4622C6.61845 13.4877 6.79522 13.5004 6.9722 13.5C8.09937 13.5 9.18037 13.0522 9.9774 12.2552C10.7744 11.4582 11.2222 10.3772 11.2222 9.25C11.2222 8.12283 10.7744 7.04183 9.9774 6.2448C9.18037 5.44777 8.09937 5.00001 6.9722 5.00001ZM6.9722 12.5555V5.94445C7.84889 5.94445 8.68967 6.29271 9.30958 6.91262C9.92949 7.53254 10.2778 8.37331 10.2778 9.25C10.2778 10.1267 9.92949 10.9675 9.30958 11.5874C8.68967 12.2073 7.84889 12.5555 6.9722 12.5555Z" fill="#444444"/>
</g>
<defs>
<clipPath id="clip0_3080_139211">
<rect width="5" height="9" fill="white" transform="translate(6 5)"/>
</clipPath>
</defs>
</svg>
