<svg width="13" height="13" viewBox="0 0 13 13" fill="none" xmlns="http://www.w3.org/2000/svg">
<path d="M6.50384 12.8337C7.36863 12.8337 8.18382 12.6683 8.94687 12.3364C9.70993 12.0045 10.384 11.5479 10.9677 10.9642C11.5514 10.3804 12.0093 9.70642 12.3399 8.94337C12.6706 8.17904 12.8372 7.36512 12.8372 6.50033C12.8372 5.63554 12.6718 4.82033 12.3399 4.05728C12.0093 3.29296 11.5514 2.6202 10.9677 2.03646C10.384 1.45273 9.70867 0.994908 8.94307 0.664252C8.17747 0.333596 7.36227 0.166992 6.4962 0.166992C5.63141 0.166992 4.81622 0.332325 4.05317 0.664252C3.28884 0.994908 2.61609 1.45273 2.03489 2.03646C1.4537 2.6202 0.997141 3.29423 0.665213 4.05728C0.333286 4.82033 0.167969 5.63554 0.167969 6.50033C0.167969 7.36512 0.333286 8.18031 0.665213 8.94337C0.997141 9.70642 1.45371 10.3804 2.03744 10.9642C2.62118 11.5479 3.29521 12.0057 4.05826 12.3364C4.82131 12.6671 5.63905 12.8337 6.50384 12.8337ZM5.80947 9.52964C5.70137 9.52964 5.60471 9.50675 5.51823 9.46096C5.43175 9.41518 5.34654 9.33888 5.26388 9.23078L3.70471 7.31806C3.65892 7.25574 3.62332 7.19088 3.59661 7.12221C3.56991 7.05353 3.55591 6.98487 3.55591 6.91365C3.55591 6.77249 3.60296 6.65166 3.69834 6.54992C3.79372 6.44818 3.912 6.39731 4.05189 6.39731C4.14346 6.39731 4.22486 6.41638 4.29735 6.45326C4.36984 6.49014 4.44488 6.56137 4.52373 6.66438L5.78402 8.29096L8.43563 4.03058C8.55136 3.83982 8.70015 3.74444 8.88329 3.74444C9.01555 3.74444 9.13637 3.7864 9.2432 3.87161C9.3513 3.95682 9.40472 4.07127 9.40472 4.21625C9.40472 4.2862 9.38818 4.35742 9.35512 4.42737C9.32205 4.49731 9.28643 4.56344 9.24955 4.62575L6.33088 9.22696C6.26475 9.32616 6.18844 9.4012 6.10069 9.45079C6.01294 9.50039 5.91629 9.52964 5.80947 9.52964Z" fill="#808080"/>
</svg>
