<svg xmlns="http://www.w3.org/2000/svg" width="14" height="10" viewBox="0 0 14 10" fill="none">
<path d="M11.2553 3.28919C11.5891 3.04733 11.9315 2.79936 12.2823 2.5453C12.9165 3.16138 13.4526 3.89198 13.8589 4.71403L14 4.99945L13.8589 5.28487C12.5577 7.9175 9.92574 9.61206 7 9.61206C5.80625 9.61206 4.66142 9.32996 3.63592 8.81713C4.02828 8.5316 4.42075 8.24623 4.81333 7.96102C5.50129 8.21506 6.23878 8.35147 7 8.35147C9.35196 8.35147 11.4774 7.04913 12.6154 4.99945C12.258 4.35546 11.7983 3.7774 11.2553 3.28919ZM9.31177 2.08558C8.58844 1.80096 7.80756 1.64743 7 1.64743C4.64804 1.64743 2.52261 2.94978 1.38456 4.99945C1.76118 5.67797 2.25118 6.28302 2.83209 6.78687C2.48917 7.03632 2.14642 7.28603 1.80384 7.53597C1.13193 6.903 0.56567 6.14388 0.141097 5.28487L0 4.99945L0.141083 4.71403C1.44234 2.0814 4.07423 0.38684 7 0.38684C8.23839 0.38684 9.42415 0.690441 10.4786 1.24027C10.0897 1.52202 9.7007 1.80379 9.31177 2.08558ZM6.05699 7.05792C7.10857 6.29475 8.16038 5.53193 9.21244 4.76945C9.21983 4.84509 9.2236 4.92181 9.2236 4.99945C9.2236 6.25736 8.23118 7.27711 7.00698 7.27711C6.66702 7.27711 6.34493 7.19846 6.057 7.05792H6.05699ZM4.81578 5.34553C4.79882 5.23099 4.79032 5.1153 4.79035 4.99945C4.79035 3.74154 5.78277 2.72179 7.00697 2.72179C7.38745 2.72179 7.74552 2.82029 8.05839 2.99382C7.49966 3.39879 6.97252 3.78093 6.4767 4.1405C6.44971 4.15813 6.42357 4.17708 6.39836 4.1973C5.87075 4.57992 5.34323 4.96266 4.81578 5.34551V5.34553ZM1.47783 9.86296C1.2127 10.0797 0.826813 10.0345 0.615927 9.76204C0.405042 9.48961 0.449012 9.0931 0.714142 8.87641C0.94612 8.6868 4.88603 5.82406 12.7703 0.115125C13.0472 -0.0853945 13.4299 -0.0172652 13.6251 0.267284C13.8202 0.551834 13.7539 0.945051 13.477 1.14557C5.75671 6.73574 1.67818 9.69921 1.47783 9.86296Z" fill="#0f9bb0"/>
</svg>