<svg width="17" height="16" viewBox="0 0 17 16" fill="none" xmlns="http://www.w3.org/2000/svg">
<path d="M8.00321 16C9.09558 16 10.1253 15.7912 11.0891 15.3719C12.053 14.9526 12.9044 14.3759 13.6418 13.6386C14.3791 12.9012 14.9574 12.0498 15.3751 11.0859C15.7928 10.1205 16.0032 9.09238 16.0032 8.00001C16.0032 6.90764 15.7944 5.87791 15.3751 4.91405C14.9574 3.94859 14.3791 3.09879 13.6418 2.36144C12.9044 1.62409 12.0514 1.04579 11.0843 0.628118C10.1173 0.210447 9.08753 0 7.99356 0C6.90119 0 5.87148 0.208841 4.90762 0.628118C3.94216 1.04579 3.09236 1.62409 2.35822 2.36144C1.62409 3.09879 1.04738 3.9502 0.628098 4.91405C0.208821 5.87791 0 6.90764 0 8.00001C0 9.09238 0.208821 10.1221 0.628098 11.0859C1.04738 12.0498 1.62409 12.9012 2.36144 13.6386C3.09879 14.3759 3.9502 14.9542 4.91405 15.3719C5.87791 15.7896 6.91084 16 8.00321 16ZM8.00321 9.45864C7.58554 9.45864 7.37027 9.24498 7.36064 8.81607L7.25943 4.54137C7.25461 4.33735 7.32047 4.16707 7.46023 4.03213C7.59839 3.89558 7.7783 3.82811 7.99677 3.82811C8.21043 3.82811 8.39036 3.89719 8.53333 4.03534C8.67791 4.17349 8.74698 4.34537 8.74055 4.54939L8.62328 8.81607C8.61847 9.24338 8.41124 9.45864 8.00321 9.45864ZM8.00321 12.0851C7.76867 12.0851 7.56305 12.0048 7.38795 11.8426C7.21285 11.6803 7.1245 11.4811 7.1245 11.2466C7.1245 11.0169 7.21124 10.8177 7.38313 10.6506C7.55502 10.4835 7.76224 10.4 8.00321 10.4C8.23774 10.4 8.44336 10.4819 8.61846 10.6474C8.79356 10.8129 8.88192 11.0121 8.88192 11.2482C8.88192 11.4843 8.79356 11.6819 8.61846 11.8442C8.44336 12.0064 8.23935 12.0851 8.00321 12.0851Z" fill="#808080"/>
</svg>
